HIERARCHY
ROOT Hips
{
	OFFSET -318.825958 -575.233643 89.265579
	CHANNELS 6 Xposition Yposition Zposition Zrotation Yrotation Xrotation
	JOINT Spine
	{
		OFFSET 0.000000 2.080078 8.814247
		CHANNELS 6 Xposition Yposition Zposition Zrotation Yrotation Xrotation
		JOINT Spine1
		{
			OFFSET 0.000000 0.000000 8.844139
			CHANNELS 6 Xposition Yposition Zposition Zrotation Yrotation Xrotation
			JOINT Spine2
			{
				OFFSET 0.000000 0.000000 11.682266
				CHANNELS 6 Xposition Yposition Zposition Zrotation Yrotation Xrotation
				JOINT Spine3
				{
					OFFSET 0.000000 0.000000 11.746704
					CHANNELS 6 Xposition Yposition Zposition Zrotation Yrotation Xrotation
					JOINT Neck
					{
						OFFSET 0.000000 0.000000 17.658264
						CHANNELS 6 Xposition Yposition Zposition Zrotation Yrotation Xrotation
						JOINT Neck1
						{
							OFFSET 0.000000 0.000000 5.101517
							CHANNELS 6 Xposition Yposition Zposition Zrotation Yrotation Xrotation
							JOINT Head
							{
								OFFSET 0.000000 0.000000 5.101517
								CHANNELS 6 Xposition Yposition Zposition Zrotation Yrotation Xrotation
								JOINT HeadEnd
								{
									OFFSET 0.000000 0.000000 11.655090
									CHANNELS 6 Xposition Yposition Zposition Zrotation Yrotation Xrotation
									End Site
									{
										OFFSET 0.000000 0.000000 0.100006
									}
								}
							}
						}
					}
					JOINT RightShoulder
					{
						OFFSET -2.625397 0.000000 11.175217
						CHANNELS 6 Xposition Yposition Zposition Zrotation Yrotation Xrotation
						JOINT RightArm
						{
							OFFSET 0.000000 0.000000 10.434723
							CHANNELS 6 Xposition Yposition Zposition Zrotation Yrotation Xrotation
							JOINT RightForeArm
							{
								OFFSET 0.000000 0.000000 29.628418
								CHANNELS 6 Xposition Yposition Zposition Zrotation Yrotation Xrotation
								JOINT RightHand
								{
									OFFSET 0.000000 0.000000 22.857605
									CHANNELS 6 Xposition Yposition Zposition Zrotation Yrotation Xrotation
									JOINT RightHandThumb1
									{
										OFFSET -2.867310 -2.944275 3.959564
										CHANNELS 6 Xposition Yposition Zposition Zrotation Yrotation Xrotation
										JOINT RightHandThumb2
										{
											OFFSET 0.000000 0.000000 3.350403
											CHANNELS 6 Xposition Yposition Zposition Zrotation Yrotation Xrotation
											JOINT RightHandThumb3
											{
												OFFSET 0.000000 0.000000 3.756516
												CHANNELS 6 Xposition Yposition Zposition Zrotation Yrotation Xrotation
												JOINT RightHandThumb4
												{
													OFFSET 0.000000 0.000000 3.147339
													CHANNELS 6 Xposition Yposition Zposition Zrotation Yrotation Xrotation
													End Site
													{
														OFFSET 0.000000 0.000000 0.100006
													}
												}
											}
										}
									}
									JOINT RightHandIndex1
									{
										OFFSET -0.086761 -2.345276 10.030899
										CHANNELS 6 Xposition Yposition Zposition Zrotation Yrotation Xrotation
										JOINT RightHandIndex2
										{
											OFFSET 0.000000 0.000000 4.061096
											CHANNELS 6 Xposition Yposition Zposition Zrotation Yrotation Xrotation
											JOINT RightHandIndex3
											{
												OFFSET 0.000000 0.000000 3.248871
												CHANNELS 6 Xposition Yposition Zposition Zrotation Yrotation Xrotation
												JOINT RightHandIndex4
												{
													OFFSET 0.000000 0.000000 2.639709
													CHANNELS 6 Xposition Yposition Zposition Zrotation Yrotation Xrotation
													End Site
													{
														OFFSET 0.000000 0.000000 0.100006
													}
												}
											}
										}
									}
									JOINT RightHandMiddle1
									{
										OFFSET 0.104095 -0.006775 9.502945
										CHANNELS 6 Xposition Yposition Zposition Zrotation Yrotation Xrotation
										JOINT RightHandMiddle2
										{
											OFFSET 0.000000 0.000000 4.568726
											CHANNELS 6 Xposition Yposition Zposition Zrotation Yrotation Xrotation
											JOINT RightHandMiddle3
											{
												OFFSET 0.000000 0.000000 3.654984
												CHANNELS 6 Xposition Yposition Zposition Zrotation Yrotation Xrotation
												JOINT RightHandMiddle4
												{
													OFFSET 0.000000 0.000000 2.741241
													CHANNELS 6 Xposition Yposition Zposition Zrotation Yrotation Xrotation
													End Site
													{
														OFFSET 0.000000 0.000000 0.100006
													}
												}
											}
										}
									}
									JOINT RightHandRing1
									{
										OFFSET 0.086761 2.267456 8.921707
										CHANNELS 6 Xposition Yposition Zposition Zrotation Yrotation Xrotation
										JOINT RightHandRing2
										{
											OFFSET 0.000000 0.000000 4.061096
											CHANNELS 6 Xposition Yposition Zposition Zrotation Yrotation Xrotation
											JOINT RightHandRing3
											{
												OFFSET 0.000000 0.000000 3.654984
												CHANNELS 6 Xposition Yposition Zposition Zrotation Yrotation Xrotation
												JOINT RightHandRing4
												{
													OFFSET 0.000000 0.000000 2.741241
													CHANNELS 6 Xposition Yposition Zposition Zrotation Yrotation Xrotation
													End Site
													{
														OFFSET 0.000000 0.000000 0.100006
													}
												}
											}
										}
									}
									JOINT RightHandPinky1
									{
										OFFSET -0.173492 4.467224 7.976990
										CHANNELS 6 Xposition Yposition Zposition Zrotation Yrotation Xrotation
										JOINT RightHandPinky2
										{
											OFFSET 0.000000 0.000000 3.350403
											CHANNELS 6 Xposition Yposition Zposition Zrotation Yrotation Xrotation
											JOINT RightHandPinky3
											{
												OFFSET 0.000000 0.000000 2.842758
												CHANNELS 6 Xposition Yposition Zposition Zrotation Yrotation Xrotation
												JOINT RightHandPinky4
												{
													OFFSET 0.000000 0.000000 2.639709
													CHANNELS 6 Xposition Yposition Zposition Zrotation Yrotation Xrotation
													End Site
													{
														OFFSET 0.000000 0.000000 0.100006
													}
												}
											}
										}
									}
									JOINT RightForeArmEnd
									{
										OFFSET 0.000000 0.000000 0.000000
										CHANNELS 6 Xposition Yposition Zposition Zrotation Yrotation Xrotation
										End Site
										{
											OFFSET 0.000000 0.000000 0.100006
										}
									}
								}
								JOINT RightArmEnd
								{
									OFFSET 0.000000 0.000000 0.000000
									CHANNELS 6 Xposition Yposition Zposition Zrotation Yrotation Xrotation
									End Site
									{
										OFFSET 0.000000 0.000000 0.100006
									}
								}
							}
						}
					}
					JOINT LeftShoulder
					{
						OFFSET 2.625397 0.000000 11.175217
						CHANNELS 6 Xposition Yposition Zposition Zrotation Yrotation Xrotation
						JOINT LeftArm
						{
							OFFSET 0.000000 0.000000 10.813629
							CHANNELS 6 Xposition Yposition Zposition Zrotation Yrotation Xrotation
							JOINT LeftForeArm
							{
								OFFSET 0.000000 0.000000 28.724777
								CHANNELS 6 Xposition Yposition Zposition Zrotation Yrotation Xrotation
								JOINT LeftHand
								{
									OFFSET 0.644379 0.328857 25.716171
									CHANNELS 6 Xposition Yposition Zposition Zrotation Yrotation Xrotation
									JOINT LeftHandThumb1
									{
										OFFSET 2.867310 -2.944275 3.959564
										CHANNELS 6 Xposition Yposition Zposition Zrotation Yrotation Xrotation
										JOINT LeftHandThumb2
										{
											OFFSET 0.000000 0.000000 3.350403
											CHANNELS 6 Xposition Yposition Zposition Zrotation Yrotation Xrotation
											JOINT LeftHandThumb3
											{
												OFFSET 0.000000 0.000000 3.756516
												CHANNELS 6 Xposition Yposition Zposition Zrotation Yrotation Xrotation
												JOINT LeftHandThumb4
												{
													OFFSET 0.000000 0.000000 3.100006
													CHANNELS 6 Xposition Yposition Zposition Zrotation Yrotation Xrotation
													End Site
													{
														OFFSET 0.000000 0.000000 0.100006
													}
												}
											}
										}
									}
									JOINT LeftHandIndex1
									{
										OFFSET 0.086761 -2.345276 10.030899
										CHANNELS 6 Xposition Yposition Zposition Zrotation Yrotation Xrotation
										JOINT LeftHandIndex2
										{
											OFFSET 0.000000 0.000000 4.061096
											CHANNELS 6 Xposition Yposition Zposition Zrotation Yrotation Xrotation
											JOINT LeftHandIndex3
											{
												OFFSET 0.000000 0.000000 3.248871
												CHANNELS 6 Xposition Yposition Zposition Zrotation Yrotation Xrotation
												JOINT LeftHandIndex4
												{
													OFFSET 0.000000 0.000000 2.639709
													CHANNELS 6 Xposition Yposition Zposition Zrotation Yrotation Xrotation
													End Site
													{
														OFFSET 0.000000 0.000000 0.100006
													}
												}
											}
										}
									}
									JOINT LeftHandMiddle1
									{
										OFFSET -0.104095 -0.006775 9.502945
										CHANNELS 6 Xposition Yposition Zposition Zrotation Yrotation Xrotation
										JOINT LeftHandMiddle2
										{
											OFFSET 0.000000 0.000000 4.568726
											CHANNELS 6 Xposition Yposition Zposition Zrotation Yrotation Xrotation
											JOINT LeftHandMiddle3
											{
												OFFSET 0.000000 0.000000 3.654984
												CHANNELS 6 Xposition Yposition Zposition Zrotation Yrotation Xrotation
												JOINT LeftHandMiddle4
												{
													OFFSET 0.000000 0.000000 2.741241
													CHANNELS 6 Xposition Yposition Zposition Zrotation Yrotation Xrotation
													End Site
													{
														OFFSET 0.000000 0.000000 0.100006
													}
												}
											}
										}
									}
									JOINT LeftHandRing1
									{
										OFFSET -0.086761 2.267456 8.921707
										CHANNELS 6 Xposition Yposition Zposition Zrotation Yrotation Xrotation
										JOINT LeftHandRing2
										{
											OFFSET 0.000000 0.000000 4.061096
											CHANNELS 6 Xposition Yposition Zposition Zrotation Yrotation Xrotation
											JOINT LeftHandRing3
											{
												OFFSET 0.000000 0.000000 3.654984
												CHANNELS 6 Xposition Yposition Zposition Zrotation Yrotation Xrotation
												JOINT LeftHandRing4
												{
													OFFSET 0.000000 0.000000 2.741241
													CHANNELS 6 Xposition Yposition Zposition Zrotation Yrotation Xrotation
													End Site
													{
														OFFSET 0.000000 0.000000 0.100006
													}
												}
											}
										}
									}
									JOINT LeftHandPinky1
									{
										OFFSET 0.173492 4.467224 7.976990
										CHANNELS 6 Xposition Yposition Zposition Zrotation Yrotation Xrotation
										JOINT LeftHandPinky2
										{
											OFFSET 0.000000 0.000000 3.350403
											CHANNELS 6 Xposition Yposition Zposition Zrotation Yrotation Xrotation
											JOINT LeftHandPinky3
											{
												OFFSET 0.000000 0.000000 2.842758
												CHANNELS 6 Xposition Yposition Zposition Zrotation Yrotation Xrotation
												JOINT LeftHandPinky4
												{
													OFFSET 0.000000 0.000000 2.639709
													CHANNELS 6 Xposition Yposition Zposition Zrotation Yrotation Xrotation
													End Site
													{
														OFFSET 0.000000 0.000000 0.100006
													}
												}
											}
										}
									}
									JOINT LeftForeArmEnd
									{
										OFFSET 0.000000 0.000000 0.000000
										CHANNELS 6 Xposition Yposition Zposition Zrotation Yrotation Xrotation
										End Site
										{
											OFFSET 0.000000 0.000000 0.100006
										}
									}
								}
								JOINT LeftArmEnd
								{
									OFFSET 0.000000 0.000000 0.000000
									CHANNELS 6 Xposition Yposition Zposition Zrotation Yrotation Xrotation
									End Site
									{
										OFFSET 0.000000 0.000000 0.100006
									}
								}
							}
						}
					}
				}
			}
		}
	}
	JOINT RightUpLeg
	{
		OFFSET -11.289948 0.000000 0.000000
		CHANNELS 6 Xposition Yposition Zposition Zrotation Yrotation Xrotation
		JOINT RightLeg
		{
			OFFSET 0.000000 0.000000 -38.200329
			CHANNELS 6 Xposition Yposition Zposition Zrotation Yrotation Xrotation
			JOINT RightFoot
			{
				OFFSET 0.000000 0.000000 -39.900856
				CHANNELS 6 Xposition Yposition Zposition Zrotation Yrotation Xrotation
				JOINT RightToeBase
				{
					OFFSET 0.000000 -15.261658 0.000001
					CHANNELS 6 Xposition Yposition Zposition Zrotation Yrotation Xrotation
					JOINT RightToeBaseEnd
					{
						OFFSET 0.000000 -7.370728 0.000000
						CHANNELS 6 Xposition Yposition Zposition Zrotation Yrotation Xrotation
						End Site
						{
							OFFSET 0.000000 0.000000 0.100000
						}
					}
				}
				JOINT RightLegEnd
				{
					OFFSET 0.000000 0.000000 0.000000
					CHANNELS 6 Xposition Yposition Zposition Zrotation Yrotation Xrotation
					End Site
					{
						OFFSET 0.000000 0.000000 0.100000
					}
				}
			}
			JOINT RightUpLegEnd
			{
				OFFSET 0.000000 0.000000 0.000000
				CHANNELS 6 Xposition Yposition Zposition Zrotation Yrotation Xrotation
				End Site
				{
					OFFSET 0.000000 0.000000 0.099998
				}
			}
		}
	}
	JOINT LeftUpLeg
	{
		OFFSET 11.315674 0.000000 0.000000
		CHANNELS 6 Xposition Yposition Zposition Zrotation Yrotation Xrotation
		JOINT LeftLeg
		{
			OFFSET 0.000000 0.000000 -38.200329
			CHANNELS 6 Xposition Yposition Zposition Zrotation Yrotation Xrotation
			JOINT LeftFoot
			{
				OFFSET 0.000000 0.000000 -39.900856
				CHANNELS 6 Xposition Yposition Zposition Zrotation Yrotation Xrotation
				JOINT LeftToeBase
				{
					OFFSET 0.000000 -15.261658 0.000001
					CHANNELS 6 Xposition Yposition Zposition Zrotation Yrotation Xrotation
					JOINT LeftToeBaseEnd
					{
						OFFSET 0.000000 -7.539978 0.000000
						CHANNELS 6 Xposition Yposition Zposition Zrotation Yrotation Xrotation
						End Site
						{
							OFFSET 0.000000 0.000000 0.100000
						}
					}
				}
				JOINT LeftLegEnd
				{
					OFFSET 0.000000 0.000000 0.000000
					CHANNELS 6 Xposition Yposition Zposition Zrotation Yrotation Xrotation
					End Site
					{
						OFFSET 0.000000 0.000000 0.100000
					}
				}
			}
			JOINT LeftUpLegEnd
			{
				OFFSET 0.000000 0.000000 0.000000
				CHANNELS 6 Xposition Yposition Zposition Zrotation Yrotation Xrotation
				End Site
				{
					OFFSET 0.000000 0.000000 0.099998
				}
			}
		}
	}
}
MOTION
Frames: 2
Frame Time: 0.016667
-0.379791 1.110107 88.649055 2.957550 -0.610269 -11.432289 0.000008 2.080062 8.814252 0.071632 -1.456710 7.920168 -0.000010 0.000022 8.844137 -0.061283 -1.000458 2.492548 -0.000011 0.000014 11.682281 2.256911 2.774280 6.958688 -0.000015 0.000020 11.746723 0.803178 3.523008 3.166605 -0.000011 -0.000015 17.658304 -2.451157 -3.412448 -2.362491 0.000005 -0.000006 5.101561 -1.711092 -0.743905 -7.074507 0.000010 0.000031 5.101534 -0.538695 -1.002175 -17.506897 -0.000001 0.000001 11.655046 0.000000 -0.000000 0.000001 -2.625411 -0.000018 11.175204 176.106155 -89.919727 -163.903722 -0.000015 0.000009 10.434742 -60.632716 -51.639112 59.305126 0.000004 -0.000038 29.628443 15.013422 0.165280 22.005152 -0.000014 0.000015 22.857599 11.901808 -2.459083 -6.834048 -2.867329 -2.944336 3.959579 31.690729 -16.746640 52.306828 -0.000004 0.000031 3.350433 -11.527942 7.943522 -20.956222 0.000013 0.000000 3.756485 -7.690617 5.973184 -14.361082 0.000000 -0.000065 3.147349 0.000000 -0.000000 0.000002 -0.086765 -2.345249 10.030880 -10.240758 -8.818854 3.543183 -0.000044 -0.000022 4.061102 0.447504 -6.507894 0.918649 -0.000003 0.000027 3.248881 -0.052598 -6.507866 0.918658 -0.000002 0.000002 2.639713 -0.000001 0.000000 -0.000000 0.104059 -0.006750 9.502914 -4.954110 -7.944907 1.183444 -0.000005 -0.000062 4.568731 0.485171 -5.680504 0.298699 -0.000027 -0.000087 3.655008 -0.015778 -5.680967 0.298784 -0.000034 -0.000002 2.741253 0.000001 -0.000000 0.000000 0.086742 2.267445 8.921694 3.071373 -8.331268 -0.109210 0.000002 -0.000003 4.061082 -0.980844 -5.899138 -0.362140 0.000003 -0.000019 3.654984 0.019083 -5.899110 -0.362131 -0.000007 -0.000002 2.741231 0.000000 0.000000 -0.000000 -0.173483 4.467224 7.976986 11.687794 -7.773660 -2.257650 0.000008 -0.000009 3.350407 -1.945600 -5.638152 -1.099670 0.000014 0.000006 2.842762 0.054143 -5.638592 -1.099594 -0.000003 0.000010 2.639717 -0.000002 -0.000001 0.000000 0.000016 0.000009 -0.000009 -0.000002 0.000000 -0.000000 -0.000014 -0.000002 0.000002 0.000001 0.000000 -0.000000 2.625413 -0.000024 11.175200 -5.213759 88.857831 0.454538 0.000008 -0.000016 10.813625 46.841482 62.876754 39.076315 -0.000025 -0.000019 28.724833 -9.191003 0.498592 39.352722 0.644417 0.328865 25.716179 -26.735705 -3.894766 -9.857650 2.867256 -2.944290 3.959564 -31.666963 16.919874 52.039792 -0.000004 0.000027 3.350410 11.909748 -8.109634 -21.599399 -0.000027 -0.000053 3.756565 7.939299 -6.118409 -14.796806 0.000005 -0.000005 3.100025 0.000000 -0.000000 -0.000002 0.086739 -2.345344 10.030918 -6.469017 12.560755 -0.464367 0.000004 0.000034 4.061105 0.405268 8.792404 -1.245422 -0.000005 0.000021 3.248909 -0.098218 8.792357 -1.245957 -0.000003 -0.000003 2.639730 0.000001 0.000002 0.000001 -0.104141 -0.006832 9.502971 -1.377548 12.355542 0.393546 -0.000007 0.000000 4.568744 0.455951 8.738652 -0.467479 0.000008 -0.000008 3.655012 -0.042073 8.738647 -0.467387 -0.000008 -0.000003 2.741236 0.000001 0.000001 -0.000000 -0.086815 2.267402 8.921719 7.391217 14.980113 2.353464 0.000017 -0.000001 4.061114 -0.935926 10.729134 0.665752 0.000008 -0.000002 3.654992 0.068548 10.729291 0.669082 0.000006 -0.000012 2.741244 0.000001 -0.000000 0.000003 0.173473 4.467198 7.977036 16.578280 16.132236 4.493943 -0.000029 0.000016 3.350433 -1.761909 11.666904 2.301426 -0.000025 -0.000029 2.842775 0.235231 11.666755 2.300792 -0.000001 -0.000006 2.639714 0.000001 0.000001 0.000003 0.000009 -0.000001 -0.000009 0.000001 0.000001 -0.000000 0.000004 -0.000026 -0.000022 0.000003 -0.000001 0.000002 -11.289941 0.000040 -0.000036 -11.924778 1.822604 15.370702 -0.000008 0.000033 -38.200317 -0.559099 0.057153 5.405162 -0.000016 -0.000029 -39.900879 -9.488784 2.352342 16.736159 -0.000001 -15.261681 0.000008 0.727467 0.945382 -18.620868 -0.000004 -7.370726 -0.000000 -0.000000 -0.000000 -0.000001 0.000013 -0.000016 0.000001 0.000003 0.000001 0.000002 0.000005 0.000004 -0.000002 -0.000001 0.000000 0.000001 11.315695 -0.000020 -0.000010 -7.933092 2.256904 9.333710 -0.000001 -0.000003 -38.200321 0.418323 -0.079803 10.816540 -0.000012 -0.000056 -39.900864 -3.135384 -3.844006 16.929838 0.000014 -15.261657 0.000004 -0.409878 -0.111619 -21.059300 0.000003 -7.539919 0.000000 0.000000 -0.000000 0.000000 0.000003 0.000063 -0.000001 -0.000000 -0.000000 -0.000002 -0.000001 0.000003 -0.000008 -0.000000 -0.000000 -0.000002 
-0.406006 1.096436 88.645210 3.146659 -0.643455 -11.458788 -0.000013 2.080088 8.814255 0.094405 -1.451107 7.909917 0.000014 -0.000011 8.844131 -0.057064 -0.975439 2.488718 0.000025 -0.000016 11.682266 2.242861 2.770540 6.966480 -0.000025 -0.000020 11.746721 0.806072 3.506004 3.194922 -0.000013 -0.000019 17.658274 -2.444707 -3.368985 -2.283513 0.000001 -0.000005 5.101530 -1.687571 -0.720566 -7.036764 -0.000014 -0.000048 5.101530 -0.548465 -0.978648 -17.560469 -0.000001 -0.000003 11.655062 -0.000000 0.000000 0.000001 -2.625390 -0.000021 11.175223 180.935714 -89.886806 -168.728117 -0.000023 0.000004 10.434742 -60.387068 -51.434750 59.100117 0.000000 -0.000015 29.628445 15.110646 0.166333 22.047914 -0.000036 0.000057 22.857632 11.837613 -2.592370 -6.875228 -2.867310 -2.944305 3.959602 31.690729 -16.746647 52.306828 -0.000019 0.000015 3.350418 -11.527941 7.943519 -20.956253 0.000006 -0.000004 3.756500 -7.690603 5.973184 -14.361060 -0.000005 -0.000057 3.147359 -0.000000 0.000000 -0.000002 -0.086727 -2.345261 10.030918 -10.294611 -9.090076 3.475259 0.000008 0.000017 4.061102 0.444201 -6.689648 0.944575 -0.000003 -0.000019 3.248852 -0.055193 -6.689623 0.944502 0.000001 0.000011 2.639712 -0.000002 -0.000000 0.000001 0.104103 -0.006766 9.502934 -5.004369 -8.215183 1.120807 -0.000065 -0.000045 4.568722 0.484049 -5.869154 0.308699 -0.000043 -0.000088 3.655010 -0.016731 -5.869511 0.308750 -0.000041 -0.000006 2.741255 0.000001 -0.000000 -0.000000 0.086760 2.267461 8.921731 3.018924 -8.636924 -0.192663 -0.000025 0.000017 4.061103 -0.979301 -6.120077 -0.375814 0.000014 0.000018 3.654970 0.020426 -6.120018 -0.375786 -0.000012 0.000004 2.741240 -0.000000 -0.000000 0.000000 -0.173489 4.467231 7.976997 11.635887 -8.092488 -2.409467 0.000010 -0.000026 3.350425 -1.941104 -5.879200 -1.146908 -0.000003 0.000020 2.842747 0.058972 -5.879232 -1.146918 -0.000003 -0.000001 2.639690 0.000000 -0.000001 0.000000 -0.000005 0.000004 0.000003 -0.000001 -0.000001 -0.000001 -0.000005 -0.000008 0.000010 0.000001 0.000001 0.000001 2.625393 0.000013 11.175234 -5.240238 88.799829 0.430822 0.000008 -0.000005 10.813637 46.941356 62.899888 39.162833 -0.000031 0.000004 28.724779 -9.199552 0.501674 39.319835 0.644379 0.328842 25.716167 -26.767069 -3.717914 -9.879885 2.867294 -2.944305 3.959572 -31.666987 16.919850 52.039727 -0.000019 0.000023 3.350388 11.909739 -8.109653 -21.599333 -0.000019 -0.000080 3.756565 7.939283 -6.118379 -14.796797 0.000018 -0.000006 3.100013 0.000002 -0.000001 -0.000001 0.086723 -2.345355 10.030929 -6.463289 12.591368 -0.512309 -0.000030 0.000022 4.061092 0.404034 8.818719 -1.249314 -0.000015 0.000015 3.248893 -0.098937 8.818711 -1.249770 -0.000002 0.000000 2.639729 0.000001 -0.000000 0.000001 -0.104139 -0.006822 9.503006 -1.373491 12.373457 0.304446 0.000007 0.000015 4.568756 0.455030 8.757007 -0.467528 -0.000003 -0.000007 3.654967 -0.042538 8.754831 -0.467134 -0.000001 0.000004 2.741245 -0.000000 0.000002 0.000001 -0.086777 2.267415 8.921732 7.392315 14.997888 2.205349 -0.000005 0.000026 4.061085 -0.935505 10.733758 0.664896 -0.000021 -0.000009 3.654997 0.068950 10.733813 0.668531 -0.000003 0.000005 2.741242 -0.000000 0.000001 0.000002 0.173470 4.467202 7.977051 16.582898 16.176740 4.304613 -0.000010 0.000027 3.350439 -1.761409 11.667708 2.302391 0.000007 -0.000008 2.842783 0.235635 11.667706 2.301621 0.000007 -0.000002 2.639718 -0.000000 0.000003 0.000001 0.000001 -0.000007 0.000010 0.000000 -0.000001 -0.000001 0.000009 -0.000002 -0.000015 -0.000000 -0.000000 -0.000000 -11.289948 0.000065 -0.000008 -11.982331 1.844995 15.436762 -0.000007 -0.000026 -38.200336 -0.557831 0.056899 5.382893 0.000006 -0.000027 -39.900875 -9.621934 2.347733 16.688765 -0.000005 -15.261671 -0.000005 0.726593 0.946312 -18.604872 0.000011 -7.370734 0.000000 0.000001 0.000000 0.000001 0.000003 -0.000020 -0.000002 0.000003 -0.000000 -0.000001 0.000003 -0.000001 -0.000002 0.000000 0.000000 0.000000 11.315697 0.000024 -0.000007 -7.995311 2.277567 9.344734 0.000018 0.000007 -38.200325 0.421517 -0.080100 10.801411 0.000008 -0.000119 -39.900879 -3.261164 -3.841307 16.954415 -0.000013 -15.261711 0.000015 -0.414302 -0.105542 -21.060376 0.000007 -7.539912 0.000000 -0.000001 0.000000 -0.000000 0.000002 0.000064 0.000001 -0.000001 -0.000000 -0.000000 -0.000002 0.000001 0.000003 -0.000000 -0.000000 -0.000000 
